<mxfile host="app.diagrams.net" agent="Mozilla/5.0 (Windows NT 10.0; Win64; x64) AppleWebKit/537.36 (KHTML, like Gecko) Chrome/134.0.0.0 Safari/537.36" version="26.1.3">
  <diagram name="Page-1" id="c37626ed-c26b-45fb-9056-f9ebc6bb27b6">
    <mxGraphModel dx="1500" dy="746" grid="1" gridSize="10" guides="1" tooltips="1" connect="1" arrows="1" fold="1" page="1" pageScale="1" pageWidth="1100" pageHeight="850" background="none" math="0" shadow="0">
      <root>
        <mxCell id="0" />
        <mxCell id="1" parent="0" />
        <mxCell id="dPFlCEwqs09wCFov827u-1" value="" style="image;points=[];aspect=fixed;html=1;align=center;shadow=0;dashed=0;image=img/lib/allied_telesis/computer_and_terminals/Personal_Computer.svg;" vertex="1" parent="1">
          <mxGeometry x="230" y="280.6" width="45.6" height="61.800000000000004" as="geometry" />
        </mxCell>
        <mxCell id="dPFlCEwqs09wCFov827u-3" value="" style="sketch=0;pointerEvents=1;shadow=0;dashed=0;html=1;strokeColor=none;fillColor=#505050;labelPosition=center;verticalLabelPosition=bottom;verticalAlign=top;outlineConnect=0;align=center;shape=mxgraph.office.servers.web_server;" vertex="1" parent="1">
          <mxGeometry x="480" y="290" width="48" height="57" as="geometry" />
        </mxCell>
        <mxCell id="dPFlCEwqs09wCFov827u-5" value="" style="whiteSpace=wrap;html=1;aspect=fixed;" vertex="1" parent="1">
          <mxGeometry x="610" y="164.4" width="308.2" height="308.2" as="geometry" />
        </mxCell>
        <mxCell id="dPFlCEwqs09wCFov827u-6" value="" style="endArrow=classic;startArrow=classic;html=1;rounded=0;entryX=1.096;entryY=0.638;entryDx=0;entryDy=0;entryPerimeter=0;" edge="1" parent="1" source="dPFlCEwqs09wCFov827u-3" target="dPFlCEwqs09wCFov827u-1">
          <mxGeometry width="50" height="50" relative="1" as="geometry">
            <mxPoint x="590" y="340" as="sourcePoint" />
            <mxPoint x="640" y="290" as="targetPoint" />
          </mxGeometry>
        </mxCell>
        <mxCell id="dPFlCEwqs09wCFov827u-15" value="attacker" style="text;html=1;align=center;verticalAlign=middle;resizable=0;points=[];autosize=1;strokeColor=none;fillColor=none;" vertex="1" parent="1">
          <mxGeometry x="217.8" y="347" width="70" height="30" as="geometry" />
        </mxCell>
        <mxCell id="dPFlCEwqs09wCFov827u-16" value="通过公网攻击 Web 服务器" style="text;html=1;align=center;verticalAlign=middle;resizable=0;points=[];autosize=1;strokeColor=none;fillColor=none;" vertex="1" parent="1">
          <mxGeometry x="300" y="280.6" width="160" height="30" as="geometry" />
        </mxCell>
        <mxCell id="dPFlCEwqs09wCFov827u-17" value="具有双网卡的服务器&lt;div&gt;内网网卡连通内网&lt;/div&gt;&lt;div&gt;除 Web 端口其他端口不可访问&lt;/div&gt;" style="text;html=1;align=center;verticalAlign=middle;resizable=0;points=[];autosize=1;strokeColor=none;fillColor=none;" vertex="1" parent="1">
          <mxGeometry x="400" y="347" width="190" height="60" as="geometry" />
        </mxCell>
        <mxCell id="dPFlCEwqs09wCFov827u-18" value="" style="sketch=0;pointerEvents=1;shadow=0;dashed=0;html=1;strokeColor=none;fillColor=#505050;labelPosition=center;verticalLabelPosition=bottom;verticalAlign=top;outlineConnect=0;align=center;shape=mxgraph.office.servers.web_server_green;" vertex="1" parent="1">
          <mxGeometry x="680" y="210" width="48" height="57" as="geometry" />
        </mxCell>
        <mxCell id="dPFlCEwqs09wCFov827u-19" value="" style="sketch=0;pointerEvents=1;shadow=0;dashed=0;html=1;strokeColor=none;fillColor=#505050;labelPosition=center;verticalLabelPosition=bottom;verticalAlign=top;outlineConnect=0;align=center;shape=mxgraph.office.servers.web_server_green;" vertex="1" parent="1">
          <mxGeometry x="680" y="342.4" width="48" height="57" as="geometry" />
        </mxCell>
        <mxCell id="dPFlCEwqs09wCFov827u-20" value="" style="sketch=0;outlineConnect=0;fontColor=#232F3E;gradientColor=none;fillColor=#C925D1;strokeColor=none;dashed=0;verticalLabelPosition=bottom;verticalAlign=top;align=center;html=1;fontSize=12;fontStyle=0;aspect=fixed;pointerEvents=1;shape=mxgraph.aws4.rds_sql_server_instance;" vertex="1" parent="1">
          <mxGeometry x="790" y="267" width="78" height="78" as="geometry" />
        </mxCell>
        <mxCell id="dPFlCEwqs09wCFov827u-21" value="" style="endArrow=classic;startArrow=classic;html=1;rounded=0;entryX=0;entryY=0.5;entryDx=0;entryDy=0;" edge="1" parent="1" source="dPFlCEwqs09wCFov827u-3" target="dPFlCEwqs09wCFov827u-5">
          <mxGeometry width="50" height="50" relative="1" as="geometry">
            <mxPoint x="500" y="340" as="sourcePoint" />
            <mxPoint x="550" y="290" as="targetPoint" />
          </mxGeometry>
        </mxCell>
        <mxCell id="dPFlCEwqs09wCFov827u-24" value="" style="endArrow=classic;startArrow=classic;html=1;rounded=0;" edge="1" parent="1">
          <mxGeometry width="50" height="50" relative="1" as="geometry">
            <mxPoint x="280" y="330" as="sourcePoint" />
            <mxPoint x="600" y="430" as="targetPoint" />
            <Array as="points">
              <mxPoint x="280" y="430" />
            </Array>
          </mxGeometry>
        </mxCell>
        <mxCell id="dPFlCEwqs09wCFov827u-25" value="❌" style="edgeLabel;html=1;align=center;verticalAlign=middle;resizable=0;points=[];" vertex="1" connectable="0" parent="dPFlCEwqs09wCFov827u-24">
          <mxGeometry x="-0.0435" y="-1" relative="1" as="geometry">
            <mxPoint x="-1" as="offset" />
          </mxGeometry>
        </mxCell>
        <mxCell id="dPFlCEwqs09wCFov827u-27" value="" style="sketch=0;pointerEvents=1;shadow=0;dashed=0;html=1;strokeColor=none;fillColor=#505050;labelPosition=center;verticalLabelPosition=bottom;verticalAlign=top;outlineConnect=0;align=center;shape=mxgraph.office.servers.web_server;" vertex="1" parent="1">
          <mxGeometry x="480" y="107.4" width="48" height="57" as="geometry" />
        </mxCell>
        <mxCell id="dPFlCEwqs09wCFov827u-28" value="" style="endArrow=classic;startArrow=classic;html=1;rounded=0;strokeColor=light-dark(#4fad10, #ededed);" edge="1" parent="1" target="dPFlCEwqs09wCFov827u-27">
          <mxGeometry width="50" height="50" relative="1" as="geometry">
            <mxPoint x="504" y="290" as="sourcePoint" />
            <mxPoint x="550" y="290" as="targetPoint" />
          </mxGeometry>
        </mxCell>
        <mxCell id="dPFlCEwqs09wCFov827u-30" value="" style="endArrow=classic;startArrow=classic;html=1;rounded=0;strokeColor=light-dark(#38a11b, #ededed);" edge="1" parent="1">
          <mxGeometry width="50" height="50" relative="1" as="geometry">
            <mxPoint x="275.6" y="280.6" as="sourcePoint" />
            <mxPoint x="470" y="130" as="targetPoint" />
          </mxGeometry>
        </mxCell>
        <mxCell id="dPFlCEwqs09wCFov827u-31" value="attacker 具有公网 IP 的服务器&lt;div&gt;运行 Frp Server&lt;/div&gt;" style="text;html=1;align=center;verticalAlign=middle;resizable=0;points=[];autosize=1;strokeColor=none;fillColor=none;" vertex="1" parent="1">
          <mxGeometry x="510" y="102.4" width="180" height="40" as="geometry" />
        </mxCell>
        <mxCell id="dPFlCEwqs09wCFov827u-32" value="attacke 在被攻击的主机上&lt;div&gt;运行 Frp Client&lt;/div&gt;" style="text;html=1;align=center;verticalAlign=middle;resizable=0;points=[];autosize=1;strokeColor=none;fillColor=none;" vertex="1" parent="1">
          <mxGeometry x="430" y="240.6" width="160" height="40" as="geometry" />
        </mxCell>
        <mxCell id="dPFlCEwqs09wCFov827u-33" value="" style="endArrow=classic;startArrow=classic;html=1;rounded=0;strokeColor=light-dark(#589112, #ededed);" edge="1" parent="1">
          <mxGeometry width="50" height="50" relative="1" as="geometry">
            <mxPoint x="530" y="295" as="sourcePoint" />
            <mxPoint x="610" y="294.89" as="targetPoint" />
          </mxGeometry>
        </mxCell>
      </root>
    </mxGraphModel>
  </diagram>
</mxfile>
